<svg width="50" height="54" viewBox="0 0 50 54" fill="none" xmlns="http://www.w3.org/2000/svg">
<path fill-rule="evenodd" clip-rule="evenodd" d="M25.0001 51.4228C22.089 53.8443 17.6891 53.7112 14.9417 51.0236L2.16786 38.528C-0.72262 35.7004 -0.72262 31.0836 2.16786 28.256L6.33763 24.1771C4.10392 21.3334 4.31668 17.2176 6.9759 14.6163L19.7497 2.12067C22.6402 -0.70685 27.3599 -0.706916 30.2503 2.12063L43.0241 14.6163C45.6833 17.2176 45.8961 21.3334 43.6624 24.1771L47.8322 28.256C50.7226 31.0836 50.7226 35.7004 47.8322 38.528L35.0584 51.0237C32.311 53.7112 27.9111 53.8442 25.0001 51.4228V51.4228ZM30.1632 13.6479L25.942 9.51865C25.4268 9.0146 24.5733 9.0146 24.058 9.51865L19.8368 13.6479C21.6677 13.5631 23.525 14.1342 25 15.3612C26.4751 14.1343 28.3323 13.5631 30.1632 13.6479H30.1632ZM25 26.9402L22.9722 28.9238L24.058 29.986C24.5733 30.49 25.4268 30.49 25.942 29.986L27.0278 28.9238L25 26.9402H25ZM9.66707 32.5371C9.23643 33.0228 9.23643 33.7612 9.66707 34.2468C9.59906 33.6791 9.59906 33.1049 9.66707 32.5371ZM24.6449 39.4964L25 39.8438L25.3552 39.4964C25.1186 39.5074 24.8815 39.5074 24.6449 39.4964ZM40.3329 32.537C40.4009 33.1049 40.4009 33.6791 40.3329 34.2469C40.7637 33.7613 40.7637 33.0227 40.3329 32.537Z" fill="#FEFEFE"/>
<path fill-rule="evenodd" clip-rule="evenodd" d="M8.41398 16.0229L21.1878 3.52721C23.2847 1.47599 26.7159 1.47594 28.8128 3.52716L41.5866 16.0229C43.6835 18.0741 43.6835 21.4306 41.5866 23.4818L36.3634 28.5913L33.3035 25.5981L36.8996 22.0804C38.2085 20.8 38.2085 18.7047 36.8996 17.4243L27.3801 8.11218C26.0712 6.83175 23.9294 6.83175 22.6205 8.11218L13.101 17.4243C12.234 18.2725 11.9415 19.4782 12.2232 20.5679L8.82914 23.8879L8.41397 23.4818C6.31709 21.4305 6.31709 18.0742 8.41397 16.0229L8.41398 16.0229ZM32.4262 32.4428L28.8128 35.9775C26.7159 38.0287 23.2847 38.0287 21.1878 35.9775L12.569 27.5463L15.6288 24.5531L22.6205 31.3925C23.9294 32.6729 26.0712 32.6729 27.3801 31.3925L29.5638 29.2564L31.7516 31.3966C32.063 31.7013 32.2878 32.06 32.4262 32.4428H32.4262Z" fill="url(#paint0_linear_548_1388)"/>
<path fill-rule="evenodd" clip-rule="evenodd" d="M3.60586 29.663L16.3797 17.1673C18.4766 15.1161 21.9077 15.1161 24.0047 17.1673L24.6602 17.8086L21.3917 21.006C20.1902 20.5612 18.7757 20.81 17.8124 21.7523L8.29293 31.0645C6.98399 32.3449 6.98399 34.4401 8.29293 35.7205L17.8124 45.0326C18.7757 45.975 20.1902 46.2237 21.3917 45.779L24.6602 48.9764L24.0047 49.6177C21.9077 51.6689 18.4766 51.6688 16.3797 49.6176L3.60586 37.122C1.50898 35.0707 1.50898 31.7143 3.60586 29.663V29.663ZM28.501 21.5658L36.7785 29.663C38.8753 31.7142 38.8753 35.0707 36.7785 37.1219L28.501 45.2192C28.2365 45.0884 27.9886 44.9155 27.7684 44.7001L25.3402 42.3247L32.0915 35.7205C33.4004 34.4401 33.4004 32.3449 32.0915 31.0645L25.3402 24.4602L27.7684 22.0849C27.9886 21.8695 28.2365 21.6966 28.501 21.5658V21.5658Z" fill="url(#paint1_linear_548_1388)"/>
<path fill-rule="evenodd" clip-rule="evenodd" d="M13.2218 29.663L13.637 29.2569L17.031 32.577C16.7493 33.6666 17.0418 34.8723 17.9089 35.7205L27.4283 45.0326C28.7372 46.3131 30.8791 46.3131 32.188 45.0326L41.7074 35.7205C43.0164 34.4401 43.0164 32.3449 41.7074 31.0645L38.1114 27.5467L41.1712 24.5535L46.3944 29.663C48.4913 31.7142 48.4913 35.0707 46.3944 37.1219L33.6206 49.6176C31.5237 51.6689 28.0925 51.6688 25.9957 49.6176L13.2218 37.1219C11.1249 35.0707 11.1249 31.7143 13.2218 29.663H13.2218ZM17.3768 25.5985L25.9957 17.1673C28.0925 15.1161 31.5237 15.1161 33.6206 17.1673L37.2341 20.7021C37.0956 21.0848 36.8709 21.4435 36.5594 21.7482L34.3716 23.8884L32.188 21.7523C30.8791 20.4719 28.7372 20.4719 27.4283 21.7523L20.4367 28.5917L17.3768 25.5985H17.3768Z" fill="url(#paint2_linear_548_1388)"/>
<defs>
<linearGradient id="paint0_linear_548_1388" x1="16.682" y1="29.8174" x2="38.2192" y2="8.43705" gradientUnits="userSpaceOnUse">
<stop stop-color="#D97D38"/>
<stop offset="1" stop-color="#F5C013"/>
</linearGradient>
<linearGradient id="paint1_linear_548_1388" x1="10.9573" y1="41.4326" x2="31.7454" y2="21.2953" gradientUnits="userSpaceOnUse">
<stop stop-color="#0981B1"/>
<stop offset="1" stop-color="#A6DCE1"/>
</linearGradient>
<linearGradient id="paint2_linear_548_1388" x1="19.9893" y1="41.4326" x2="45.2218" y2="19.9799" gradientUnits="userSpaceOnUse">
<stop stop-color="#00961B"/>
<stop offset="1" stop-color="#B9D98A"/>
</linearGradient>
</defs>
</svg>
