<svg width="201" height="54" viewBox="0 0 201 54" fill="none" xmlns="http://www.w3.org/2000/svg">
<path fill-rule="evenodd" clip-rule="evenodd" d="M25.0001 51.4228C22.089 53.8443 17.6891 53.7112 14.9417 51.0236L2.16786 38.528C-0.72262 35.7004 -0.72262 31.0836 2.16786 28.256L6.33763 24.1771C4.10392 21.3334 4.31668 17.2176 6.9759 14.6163L19.7497 2.12067C22.6402 -0.70685 27.3599 -0.706916 30.2503 2.12063L43.0241 14.6163C45.6833 17.2176 45.8961 21.3334 43.6624 24.1771L47.8322 28.256C50.7226 31.0836 50.7226 35.7004 47.8322 38.528L35.0584 51.0237C32.311 53.7112 27.9111 53.8442 25.0001 51.4228V51.4228ZM30.1632 13.6479L25.942 9.51865C25.4268 9.0146 24.5733 9.0146 24.058 9.51865L19.8368 13.6479C21.6677 13.5631 23.525 14.1342 25 15.3612C26.4751 14.1343 28.3323 13.5631 30.1632 13.6479H30.1632ZM25 26.9402L22.9722 28.9238L24.058 29.986C24.5733 30.49 25.4268 30.49 25.942 29.986L27.0278 28.9238L25 26.9402H25ZM9.66707 32.5371C9.23643 33.0228 9.23643 33.7612 9.66707 34.2468C9.59906 33.6791 9.59906 33.1049 9.66707 32.5371ZM24.6449 39.4964L25 39.8438L25.3552 39.4964C25.1186 39.5074 24.8815 39.5074 24.6449 39.4964ZM40.3329 32.537C40.4009 33.1049 40.4009 33.6791 40.3329 34.2469C40.7637 33.7613 40.7637 33.0227 40.3329 32.537Z" fill="#FEFEFE"/>
<path fill-rule="evenodd" clip-rule="evenodd" d="M8.41398 16.0229L21.1878 3.52721C23.2847 1.47599 26.7159 1.47594 28.8128 3.52716L41.5866 16.0229C43.6835 18.0741 43.6835 21.4306 41.5866 23.4818L36.3634 28.5913L33.3035 25.5981L36.8996 22.0804C38.2085 20.8 38.2085 18.7047 36.8996 17.4243L27.3801 8.11218C26.0712 6.83175 23.9294 6.83175 22.6205 8.11218L13.101 17.4243C12.234 18.2725 11.9415 19.4782 12.2232 20.5679L8.82914 23.8879L8.41397 23.4818C6.31709 21.4305 6.31709 18.0742 8.41397 16.0229L8.41398 16.0229ZM32.4262 32.4428L28.8128 35.9775C26.7159 38.0287 23.2847 38.0287 21.1878 35.9775L12.569 27.5463L15.6288 24.5531L22.6205 31.3925C23.9294 32.6729 26.0712 32.6729 27.3801 31.3925L29.5638 29.2564L31.7516 31.3966C32.063 31.7013 32.2878 32.06 32.4262 32.4428H32.4262Z" fill="url(#paint0_linear_548_1387)"/>
<path fill-rule="evenodd" clip-rule="evenodd" d="M3.60586 29.663L16.3797 17.1673C18.4766 15.1161 21.9077 15.1161 24.0047 17.1673L24.6602 17.8086L21.3917 21.006C20.1902 20.5612 18.7757 20.81 17.8124 21.7523L8.29293 31.0645C6.98399 32.3449 6.98399 34.4401 8.29293 35.7205L17.8124 45.0326C18.7757 45.975 20.1902 46.2237 21.3917 45.779L24.6602 48.9764L24.0047 49.6177C21.9077 51.6689 18.4766 51.6688 16.3797 49.6176L3.60586 37.122C1.50898 35.0707 1.50898 31.7143 3.60586 29.663V29.663ZM28.501 21.5658L36.7785 29.663C38.8753 31.7142 38.8753 35.0707 36.7785 37.1219L28.501 45.2192C28.2365 45.0884 27.9886 44.9155 27.7684 44.7001L25.3402 42.3247L32.0915 35.7205C33.4004 34.4401 33.4004 32.3449 32.0915 31.0645L25.3402 24.4602L27.7684 22.0849C27.9886 21.8695 28.2365 21.6966 28.501 21.5658V21.5658Z" fill="url(#paint1_linear_548_1387)"/>
<path fill-rule="evenodd" clip-rule="evenodd" d="M13.2218 29.663L13.637 29.2569L17.031 32.577C16.7493 33.6666 17.0418 34.8723 17.9089 35.7205L27.4283 45.0326C28.7372 46.3131 30.8791 46.3131 32.188 45.0326L41.7074 35.7205C43.0164 34.4401 43.0164 32.3449 41.7074 31.0645L38.1114 27.5467L41.1712 24.5535L46.3944 29.663C48.4913 31.7142 48.4913 35.0707 46.3944 37.1219L33.6206 49.6176C31.5237 51.6689 28.0925 51.6688 25.9957 49.6176L13.2218 37.1219C11.1249 35.0707 11.1249 31.7143 13.2218 29.663H13.2218ZM17.3768 25.5985L25.9957 17.1673C28.0925 15.1161 31.5237 15.1161 33.6206 17.1673L37.2341 20.7021C37.0956 21.0848 36.8709 21.4435 36.5594 21.7482L34.3716 23.8884L32.188 21.7523C30.8791 20.4719 28.7372 20.4719 27.4283 21.7523L20.4367 28.5917L17.3768 25.5985H17.3768Z" fill="url(#paint2_linear_548_1387)"/>
<path d="M58.904 36V19.488H62.192V36H58.904ZM53.528 22.032V19.128H67.568V22.032H53.528ZM72.0509 36.24C70.8829 36.24 69.8269 35.976 68.8829 35.448C67.9549 34.904 67.2109 34.176 66.6509 33.264C66.1069 32.336 65.8349 31.304 65.8349 30.168C65.8349 29.032 66.1069 28.016 66.6509 27.12C67.1949 26.208 67.9389 25.488 68.8829 24.96C69.8269 24.416 70.8749 24.144 72.0269 24.144C73.2109 24.144 74.2669 24.416 75.1949 24.96C76.1389 25.488 76.8829 26.208 77.4269 27.12C77.9709 28.016 78.2429 29.032 78.2429 30.168C78.2429 31.304 77.9709 32.336 77.4269 33.264C76.8829 34.176 76.1389 34.904 75.1949 35.448C74.2669 35.976 73.2189 36.24 72.0509 36.24ZM72.0269 33.312C72.6189 33.312 73.1389 33.184 73.5869 32.928C74.0509 32.656 74.4029 32.288 74.6429 31.824C74.8989 31.344 75.0269 30.8 75.0269 30.192C75.0269 29.584 74.8989 29.048 74.6429 28.584C74.3869 28.12 74.0349 27.76 73.5869 27.504C73.1389 27.232 72.6189 27.096 72.0269 27.096C71.4509 27.096 70.9389 27.232 70.4909 27.504C70.0429 27.76 69.6909 28.12 69.4349 28.584C69.1789 29.048 69.0509 29.584 69.0509 30.192C69.0509 30.8 69.1789 31.344 69.4349 31.824C69.6909 32.288 70.0429 32.656 70.4909 32.928C70.9389 33.184 71.4509 33.312 72.0269 33.312ZM86.699 36.24C85.867 36.24 85.115 36.072 84.443 35.736C83.771 35.384 83.235 34.912 82.835 34.32C82.435 33.728 82.219 33.048 82.187 32.28V28.176C82.219 27.408 82.435 26.728 82.835 26.136C83.251 25.528 83.787 25.048 84.443 24.696C85.115 24.344 85.867 24.168 86.699 24.168C87.771 24.168 88.731 24.432 89.579 24.96C90.427 25.488 91.091 26.208 91.571 27.12C92.067 28.032 92.315 29.064 92.315 30.216C92.315 31.352 92.067 32.376 91.571 33.288C91.091 34.2 90.427 34.92 89.579 35.448C88.731 35.976 87.771 36.24 86.699 36.24ZM86.147 33.336C86.723 33.336 87.235 33.208 87.683 32.952C88.131 32.68 88.475 32.312 88.715 31.848C88.971 31.368 89.099 30.816 89.099 30.192C89.099 29.584 88.971 29.048 88.715 28.584C88.475 28.104 88.131 27.736 87.683 27.48C87.235 27.208 86.723 27.072 86.147 27.072C85.587 27.072 85.083 27.208 84.635 27.48C84.187 27.736 83.835 28.104 83.579 28.584C83.339 29.048 83.219 29.584 83.219 30.192C83.219 30.816 83.339 31.368 83.579 31.848C83.835 32.312 84.179 32.68 84.611 32.952C85.059 33.208 85.571 33.336 86.147 33.336ZM80.267 40.848V24.408H83.411V27.456L82.883 30.264L83.387 33.072V40.848H80.267ZM98.3604 36.264C97.7044 36.264 97.0564 36.176 96.4164 36C95.7924 35.824 95.2164 35.584 94.6884 35.28C94.1604 34.96 93.7044 34.576 93.3204 34.128L95.1924 32.232C95.5924 32.68 96.0564 33.016 96.5844 33.24C97.1124 33.464 97.6964 33.576 98.3364 33.576C98.8484 33.576 99.2324 33.504 99.4884 33.36C99.7604 33.216 99.8964 33 99.8964 32.712C99.8964 32.392 99.7524 32.144 99.4644 31.968C99.1924 31.792 98.8324 31.648 98.3844 31.536C97.9364 31.408 97.4644 31.272 96.9684 31.128C96.4884 30.968 96.0244 30.768 95.5764 30.528C95.1284 30.272 94.7604 29.928 94.4724 29.496C94.2004 29.048 94.0644 28.472 94.0644 27.768C94.0644 27.032 94.2404 26.392 94.5924 25.848C94.9604 25.304 95.4804 24.88 96.1524 24.576C96.8244 24.272 97.6164 24.12 98.5284 24.12C99.4884 24.12 100.352 24.288 101.12 24.624C101.904 24.96 102.552 25.464 103.064 26.136L101.168 28.032C100.816 27.6 100.416 27.288 99.9684 27.096C99.5364 26.904 99.0644 26.808 98.5524 26.808C98.0884 26.808 97.7284 26.88 97.4724 27.024C97.2324 27.168 97.1124 27.368 97.1124 27.624C97.1124 27.912 97.2484 28.136 97.5204 28.296C97.8084 28.456 98.1764 28.6 98.6244 28.728C99.0724 28.84 99.5364 28.976 100.016 29.136C100.512 29.28 100.976 29.488 101.408 29.76C101.856 30.032 102.216 30.392 102.488 30.84C102.776 31.288 102.92 31.864 102.92 32.568C102.92 33.704 102.512 34.608 101.696 35.28C100.88 35.936 99.7684 36.264 98.3604 36.264Z" fill="#FD183E"/>
<path d="M107.776 29.736V27.072H111.688C112.2 27.072 112.664 26.968 113.08 26.76C113.496 26.552 113.824 26.256 114.064 25.872C114.304 25.472 114.424 24.992 114.424 24.432C114.424 23.888 114.304 23.416 114.064 23.016C113.824 22.616 113.496 22.312 113.08 22.104C112.664 21.896 112.2 21.792 111.688 21.792H107.776V19.128H112.024C113.096 19.128 114.056 19.344 114.904 19.776C115.768 20.208 116.448 20.824 116.944 21.624C117.44 22.408 117.688 23.344 117.688 24.432C117.688 25.52 117.44 26.464 116.944 27.264C116.448 28.048 115.768 28.656 114.904 29.088C114.056 29.52 113.096 29.736 112.024 29.736H107.776ZM105.376 36V19.128H108.64V36H105.376ZM124.138 36.24C123.082 36.24 122.13 35.976 121.282 35.448C120.434 34.92 119.77 34.2 119.29 33.288C118.81 32.376 118.57 31.352 118.57 30.216C118.57 29.064 118.81 28.032 119.29 27.12C119.77 26.208 120.434 25.488 121.282 24.96C122.13 24.432 123.082 24.168 124.138 24.168C124.97 24.168 125.714 24.336 126.37 24.672C127.026 25.008 127.546 25.48 127.93 26.088C128.33 26.68 128.546 27.352 128.578 28.104V32.28C128.546 33.048 128.33 33.728 127.93 34.32C127.546 34.912 127.026 35.384 126.37 35.736C125.714 36.072 124.97 36.24 124.138 36.24ZM124.714 33.336C125.594 33.336 126.306 33.048 126.85 32.472C127.394 31.88 127.666 31.12 127.666 30.192C127.666 29.584 127.538 29.048 127.282 28.584C127.042 28.104 126.698 27.736 126.25 27.48C125.818 27.208 125.306 27.072 124.714 27.072C124.138 27.072 123.626 27.208 123.178 27.48C122.746 27.736 122.402 28.104 122.146 28.584C121.906 29.048 121.786 29.584 121.786 30.192C121.786 30.816 121.906 31.368 122.146 31.848C122.402 32.312 122.746 32.68 123.178 32.952C123.626 33.208 124.138 33.336 124.714 33.336ZM127.498 36V32.88L128.002 30.048L127.498 27.264V24.408H130.618V36H127.498ZM137.048 36.096L132.2 24.408H135.608L138.824 33.336H137.672L141.008 24.408H144.44L139.28 36.072L137.048 36.096ZM133.832 40.848L137.36 33.384L139.28 36.072L137.168 40.848H133.832ZM145.751 36V24.408H148.895V36H145.751ZM153.311 36V29.16C153.311 28.488 153.095 27.968 152.663 27.6C152.247 27.216 151.727 27.024 151.103 27.024C150.687 27.024 150.311 27.112 149.975 27.288C149.639 27.448 149.375 27.688 149.183 28.008C148.991 28.328 148.895 28.712 148.895 29.16L147.671 28.56C147.671 27.664 147.863 26.888 148.247 26.232C148.647 25.576 149.183 25.072 149.855 24.72C150.527 24.352 151.287 24.168 152.135 24.168C152.935 24.168 153.663 24.352 154.319 24.72C154.975 25.072 155.495 25.576 155.879 26.232C156.263 26.872 156.455 27.648 156.455 28.56V36H153.311ZM160.871 36V29.16C160.871 28.488 160.655 27.968 160.223 27.6C159.807 27.216 159.287 27.024 158.663 27.024C158.263 27.024 157.887 27.112 157.535 27.288C157.199 27.448 156.935 27.688 156.743 28.008C156.551 28.328 156.455 28.712 156.455 29.16L154.655 28.728C154.719 27.8 154.967 27 155.399 26.328C155.831 25.64 156.399 25.112 157.103 24.744C157.807 24.36 158.591 24.168 159.455 24.168C160.319 24.168 161.095 24.352 161.783 24.72C162.471 25.072 163.015 25.584 163.415 26.256C163.815 26.928 164.015 27.728 164.015 28.656V36H160.871ZM172.108 36.24C170.892 36.24 169.812 35.984 168.868 35.472C167.924 34.944 167.172 34.224 166.612 33.312C166.068 32.4 165.796 31.36 165.796 30.192C165.796 29.04 166.06 28.016 166.588 27.12C167.132 26.208 167.868 25.488 168.796 24.96C169.724 24.416 170.756 24.144 171.892 24.144C173.012 24.144 173.996 24.4 174.844 24.912C175.708 25.408 176.38 26.096 176.86 26.976C177.356 27.84 177.604 28.824 177.604 29.928C177.604 30.136 177.588 30.352 177.556 30.576C177.54 30.784 177.5 31.024 177.436 31.296L167.692 31.32V28.968L175.972 28.944L174.7 29.928C174.668 29.24 174.54 28.664 174.316 28.2C174.108 27.736 173.796 27.384 173.38 27.144C172.98 26.888 172.484 26.76 171.892 26.76C171.268 26.76 170.724 26.904 170.26 27.192C169.796 27.464 169.436 27.856 169.18 28.368C168.94 28.864 168.82 29.456 168.82 30.144C168.82 30.848 168.948 31.464 169.204 31.992C169.476 32.504 169.86 32.904 170.356 33.192C170.852 33.464 171.428 33.6 172.084 33.6C172.676 33.6 173.212 33.504 173.692 33.312C174.172 33.104 174.588 32.8 174.94 32.4L176.788 34.248C176.228 34.904 175.54 35.4 174.724 35.736C173.924 36.072 173.052 36.24 172.108 36.24ZM187.348 36V29.352C187.348 28.664 187.132 28.104 186.7 27.672C186.268 27.24 185.708 27.024 185.02 27.024C184.572 27.024 184.172 27.12 183.82 27.312C183.468 27.504 183.188 27.776 182.98 28.128C182.788 28.48 182.692 28.888 182.692 29.352L181.468 28.728C181.468 27.816 181.66 27.024 182.044 26.352C182.444 25.664 182.988 25.128 183.676 24.744C184.38 24.36 185.172 24.168 186.052 24.168C186.9 24.168 187.66 24.384 188.332 24.816C189.004 25.232 189.532 25.784 189.916 26.472C190.3 27.144 190.492 27.872 190.492 28.656V36H187.348ZM179.548 36V24.408H182.692V36H179.548ZM194.588 36V19.584H197.732V36H194.588ZM191.876 27.168V24.408H200.444V27.168H191.876Z" fill="#1E1E1E"/>
<defs>
<linearGradient id="paint0_linear_548_1387" x1="16.682" y1="29.8174" x2="38.2192" y2="8.43705" gradientUnits="userSpaceOnUse">
<stop stop-color="#D97D38"/>
<stop offset="1" stop-color="#F5C013"/>
</linearGradient>
<linearGradient id="paint1_linear_548_1387" x1="10.9573" y1="41.4326" x2="31.7454" y2="21.2953" gradientUnits="userSpaceOnUse">
<stop stop-color="#0981B1"/>
<stop offset="1" stop-color="#A6DCE1"/>
</linearGradient>
<linearGradient id="paint2_linear_548_1387" x1="19.9893" y1="41.4326" x2="45.2218" y2="19.9799" gradientUnits="userSpaceOnUse">
<stop stop-color="#00961B"/>
<stop offset="1" stop-color="#B9D98A"/>
</linearGradient>
</defs>
</svg>
