<svg width="108" height="115" viewBox="0 0 108 115" fill="none" xmlns="http://www.w3.org/2000/svg">
<path fill-rule="evenodd" clip-rule="evenodd" d="M53.8424 110.749C47.573 115.964 38.0969 115.677 32.1798 109.889L4.66891 82.9774C-1.5563 76.8878 -1.5563 66.9445 4.66891 60.8548L13.6493 52.07C8.83859 45.9456 9.2968 37.0815 15.024 31.4791L42.5349 4.56727C48.7601 -1.52234 58.9247 -1.52248 65.1499 4.56718L92.6608 31.4791C98.3878 37.0815 98.8461 45.9456 94.0354 52.07L103.016 60.8548C109.241 66.9444 109.241 76.8878 103.016 82.9774L75.505 109.889C69.5879 115.678 60.1119 115.964 53.8424 110.749V110.749ZM64.9623 29.3934L55.8712 20.5002C54.7615 19.4147 52.9233 19.4147 51.8136 20.5002L42.7224 29.3934C46.6656 29.2108 50.6657 30.4408 53.8424 33.0833C57.0192 30.4409 61.0192 29.2109 64.9623 29.3934H64.9623ZM53.8424 58.0209L49.4751 62.293L51.8136 64.5805C52.9233 65.6661 54.7615 65.6661 55.8712 64.5805L58.2096 62.293L53.8424 58.0209H53.8424ZM20.8199 70.075C19.8924 71.121 19.8924 72.7113 20.8199 73.7572C20.6734 72.5344 20.6734 71.2978 20.8199 70.075ZM53.0775 85.0631L53.8424 85.8114L54.6073 85.0631C54.0977 85.0867 53.5871 85.0867 53.0775 85.0631ZM86.8647 70.0748C87.0112 71.2977 87.0112 72.5345 86.8647 73.7574C87.7924 72.7114 87.7924 71.1208 86.8647 70.0748Z" fill="#FEFEFE"/>
<path fill-rule="evenodd" clip-rule="evenodd" d="M18.1209 34.5088L45.6319 7.59701C50.1479 3.17931 57.5376 3.17922 62.0537 7.59692L89.5645 34.5088C94.0805 38.9265 94.0805 46.1554 89.5645 50.5731L78.3153 61.5773L71.7254 55.1309L79.4701 47.5548C82.2892 44.7972 82.2892 40.2847 79.4701 37.5271L58.9682 17.4716C56.1492 14.714 51.5363 14.714 48.7173 17.4716L28.2154 37.5271C26.348 39.3539 25.7181 41.9506 26.3248 44.2973L19.0151 51.4478L18.1209 50.5731C13.6049 46.1553 13.6049 38.9267 18.1209 34.5088L18.1209 34.5088ZM69.8359 69.8722L62.0537 77.485C57.5376 81.9027 50.1479 81.9026 45.6319 77.4849L27.0696 59.3267L33.6595 52.8803L48.7174 67.6103C51.5363 70.368 56.1493 70.368 58.9682 67.6103L63.6711 63.0098L68.3829 67.6191C69.0537 68.2753 69.5378 69.048 69.8359 69.8722H69.8359Z" fill="url(#paint0_linear_548_1378)"/>
<path fill-rule="evenodd" clip-rule="evenodd" d="M7.76593 63.8843L35.2769 36.9725C39.7929 32.5548 47.1826 32.5547 51.6987 36.9724L53.1106 38.3536L46.0713 45.2398C43.4834 44.2819 40.4371 44.8176 38.3624 46.8471L17.8604 66.9026C15.0414 69.6602 15.0414 74.1727 17.8604 76.9303L38.3624 96.9858C40.4371 99.0154 43.4834 99.551 46.0713 98.5932L53.1106 105.479L51.6987 106.861C47.1826 111.278 39.7929 111.278 35.2769 106.86L7.76593 79.9486C3.2499 75.5308 3.2499 68.3021 7.76593 63.8843V63.8843ZM61.3825 46.4454L79.2095 63.8843C83.7256 68.302 83.7256 75.5309 79.2095 79.9486L61.3825 97.3875C60.8128 97.1058 60.2789 96.7335 59.8046 96.2695L54.575 91.1538L69.1151 76.9303C71.9342 74.1727 71.9342 69.6602 69.1151 66.9026L54.575 52.6791L59.8046 47.5634C60.2789 47.0995 60.8127 46.7271 61.3825 46.4454V46.4454Z" fill="url(#paint1_linear_548_1378)"/>
<path fill-rule="evenodd" clip-rule="evenodd" d="M28.4759 63.8843L29.37 63.0096L36.6798 70.1601C36.0731 72.5068 36.7029 75.1035 38.5704 76.9303L59.0723 96.9858C61.8912 99.7435 66.5042 99.7435 69.3232 96.9858L89.8251 76.9303C92.6441 74.1727 92.6441 69.6602 89.8251 66.9026L82.0804 59.3265L88.6703 52.8801L99.9195 63.8843C104.436 68.302 104.436 75.5309 99.9195 79.9486L72.4087 106.86C67.8925 111.278 60.5029 111.278 55.9868 106.86L28.4759 79.9486C23.9599 75.5308 23.9599 68.3021 28.4759 63.8843H28.4759ZM37.4245 55.1307L55.9868 36.9725C60.5029 32.5548 67.8925 32.5547 72.4086 36.9724L80.1909 44.5852C79.8927 45.4094 79.4086 46.1821 78.7378 46.8383L74.026 51.4475L69.3231 46.8471C66.5042 44.0894 61.8912 44.0894 59.0723 46.8471L44.0144 61.5771L37.4245 55.1307H37.4245Z" fill="url(#paint2_linear_548_1378)"/>
<defs>
<linearGradient id="paint0_linear_548_1378" x1="35.9276" y1="64.2181" x2="82.3122" y2="18.1713" gradientUnits="userSpaceOnUse">
<stop stop-color="#D97D38"/>
<stop offset="1" stop-color="#F5C013"/>
</linearGradient>
<linearGradient id="paint1_linear_548_1378" x1="23.5987" y1="89.2323" x2="68.3698" y2="45.8628" gradientUnits="userSpaceOnUse">
<stop stop-color="#0981B1"/>
<stop offset="1" stop-color="#A6DCE1"/>
</linearGradient>
<linearGradient id="paint2_linear_548_1378" x1="43.0509" y1="89.2323" x2="97.3941" y2="43.0299" gradientUnits="userSpaceOnUse">
<stop stop-color="#00961B"/>
<stop offset="1" stop-color="#B9D98A"/>
</linearGradient>
</defs>
</svg>
